# xmcd
# Copyright (C) 1995-1998 Ti Kan
#
# Track frame offsets:
#       150
#       12328
#       25209
#       41288
#
# Disc length: 728 seconds
#
# Revision: 0
# Processed by: cddbd v1.5.2PL0 Copyright (c) Steve Scherf et al.
# Submitted via: CD-Import v1.0
#
DISCID=2302d604
DTITLE=Aeronauten - "hallo Liebe"
DYEAR=2009
DGENRE=
TTITLE0=Womunidurä
TTITLE1=Zickenalarm
TTITLE2=Wir Wollen Immer Dasselbe
TTITLE3=Asino Morto
EXTD=
EXTT0=
EXTT1=
EXTT2=
EXTT3=
PLAYORDER=
